<svg xmlns="http://www.w3.org/2000/svg" width="58" height="60" viewBox="0 0 58 60"><g transform="translate(-3 -2)"><path d="M44,12H36a3,3,0,0,0-3,3V59a3,3,0,0,0,3,3h8a3,3,0,0,0,3-3v-6.7A10.99,10.99,0,0,0,56,57h5V56a11.007,11.007,0,0,0-6.444-10A11.007,11.007,0,0,0,61,36V35H56a10.99,10.99,0,0,0-9,4.7V15A3,3,0,0,0,44,12Zm1,31H35V30H45ZM36,14h8a1,1,0,0,1,1,1V28H35V15A1,1,0,0,1,36,14Zm9,45a1,1,0,0,1-1,1H36a1,1,0,0,1-1-1V45H45Zm13.944-4H56a9.012,9.012,0,0,1-8.944-8H50a9.012,9.012,0,0,1,8.944,8ZM56,37h2.944A9.012,9.012,0,0,1,50,45H47.056A9.012,9.012,0,0,1,56,37Z" fill="#bba07a"></path><path d="M3,43v1H8a10.99,10.99,0,0,0,9-4.695V59a3,3,0,0,0,3,3h8a3,3,0,0,0,3-3V5a3,3,0,0,0-3-3H20a3,3,0,0,0-3,3V26.7A10.99,10.99,0,0,0,8,22H3v1A11.007,11.007,0,0,0,9.444,33,11.007,11.007,0,0,0,3,43ZM19,26H29V43H19Zm9,34H20a1,1,0,0,1-1-1V45H29V59A1,1,0,0,1,28,60ZM20,4h8a1,1,0,0,1,1,1V24H19V5A1,1,0,0,1,20,4ZM5.056,24H8a9.012,9.012,0,0,1,8.944,8H14a9.012,9.012,0,0,1-8.944-8ZM14,34h2.944A9.012,9.012,0,0,1,8,42H5.056A9.012,9.012,0,0,1,14,34Z" fill="#bba07a"></path><rect width="2" height="16" transform="translate(25 6)" fill="#bba07a"></rect><rect width="2" height="7" transform="translate(25 51)" fill="#bba07a"></rect><rect width="2" height="2" transform="translate(25 47)" fill="#bba07a"></rect><rect width="2" height="2" transform="translate(37 39)" fill="#bba07a"></rect><rect width="2" height="7" transform="translate(37 51)" fill="#bba07a"></rect><rect width="2" height="2" transform="translate(37 47)" fill="#bba07a"></rect></g></svg>