<svg xmlns="http://www.w3.org/2000/svg" width="71.677" height="53.887" viewBox="0 0 71.677 53.887"><g transform="translate(-685.402 -50.866)"><path d="M7.766-7.7v2.871H3.146V-7.7H.9V0H3.146V-2.981h4.62V0H10.01V-7.7ZM19.6-7.7v3.894A2.013,2.013,0,0,1,17.38-1.595a2.021,2.021,0,0,1-2.233-2.211V-7.7H12.9v4.07C12.9-1.287,14.509.253,17.38.253s4.466-1.54,4.466-3.883V-7.7ZM31.581-4.015a1.693,1.693,0,0,0,1.76-1.694c0-1.232-1.2-1.991-3.091-1.991H24.739V0H30.69c1.892,0,3.091-.781,3.091-2.112C33.781-3.3,32.791-3.938,31.581-4.015Zm-4.62-2.123h2.915c.748,0,1.243.165,1.243.748s-.495.759-1.243.759H26.961Zm3.256,4.576H26.961V-3.179h3.256c.792,0,1.265.176,1.265.8S31.009-1.562,30.217-1.562ZM44.594-4.884c-1.375-.11-2.266-.176-2.266-.693,0-.55,1.089-.693,1.991-.693a5.286,5.286,0,0,1,3.091.858l1.133-1.4a7.412,7.412,0,0,0-4.224-1.144c-2.442,0-4.224.9-4.224,2.552,0,1.716,2.079,2.222,4.367,2.42,1.584.132,2.2.3,2.2.792s-.66.748-1.98.748a5.647,5.647,0,0,1-3.718-1.2L39.787-1.254A7.646,7.646,0,0,0,44.638.253C47.432.253,48.9-.825,48.9-2.409,48.9-4.18,47.113-4.675,44.594-4.884ZM56.727-7.7H51.381V0h2.244V-2.31h3.1c2.1,0,3.5-.9,3.5-2.7C60.225-6.776,58.828-7.7,56.727-7.7ZM56.54-3.938H53.625V-6H56.54c.836,0,1.408.253,1.408,1.034S57.376-3.938,56.54-3.938ZM68.871,0h2.387L67.276-7.7H64.823L60.841,0h2.354l.726-1.474h4.224Zm-4.18-3.069L66.033-5.8l1.331,2.728Z" transform="translate(685 104)" fill="#fff" stroke="rgba(0,0,0,0)" stroke-width="1"></path><path d="M702.21,393.535a5.315,5.315,0,0,0-.946-1.3,8.84,8.84,0,0,0-1.581-1.284,14.423,14.423,0,0,0-11.961-.8,14.438,14.438,0,0,0,7.038,10.175v0a14.435,14.435,0,0,0,12.141,1.076,21.245,21.245,0,0,1-1.709-2.036,19.751,19.751,0,0,1-2.982-5.825Zm-1.5-4.3c.23.143.492.322.766.528-.025-.308-.04-.617-.047-.925a15.1,15.1,0,0,1,.873-5.468,14.537,14.537,0,0,0-5.562-2.158,14.471,14.471,0,0,0-.883,6.286,16.418,16.418,0,0,1,4.8,1.7l.06.035Zm-7.187-2,.317.016a16.535,16.535,0,0,1,1.352-7.532l.3-.675.729.082a16.512,16.512,0,0,1,6.9,2.4,15.492,15.492,0,0,1,2.127-3.07,17.555,17.555,0,0,1,2.72-2.473l.593-.439.595.439a18.191,18.191,0,0,1,2.3,2.006,15.317,15.317,0,0,1,2.566,3.525,16.509,16.509,0,0,1,6.877-2.387l.729-.082.3.675a16.551,16.551,0,0,1,1.352,7.532c.107-.007.212-.012.317-.016a16.533,16.533,0,0,1,7.292,1.364l.675.3-.082.729a16.428,16.428,0,0,1-8.126,12.424h0a16.417,16.417,0,0,1-14.787.841,16.419,16.419,0,0,1-14.788-.841h0a16.424,16.424,0,0,1-8.128-12.424l-.082-.729.677-.3a16.506,16.506,0,0,1,7.292-1.364Zm14.99,12.961a21.992,21.992,0,0,0,1.478-1.8,17.632,17.632,0,0,0,3.648-9.762,12.5,12.5,0,0,0-3.63-9.265,15.6,15.6,0,0,0-1.457-1.327,15.184,15.184,0,0,0-1.823,1.733,12.941,12.941,0,0,0-3.311,9.025,16.582,16.582,0,0,0,3.378,9.374A19.61,19.61,0,0,0,708.508,400.194Zm3.08-.61q-.68.921-1.457,1.788a14.55,14.55,0,0,0,5.8.862,14.394,14.394,0,0,0,6.41-1.915v0a14.441,14.441,0,0,0,7.038-10.175,14.422,14.422,0,0,0-11.979.815v0a7.3,7.3,0,0,0-1.346.931,6.593,6.593,0,0,0-1.235,1.453,21.483,21.483,0,0,1-3.227,6.241Zm4.038-10.9q-.016.527-.068,1.055a10.045,10.045,0,0,1,.887-.54l0,0a16.371,16.371,0,0,1,4.8-1.7,14.482,14.482,0,0,0-.884-6.286,14.544,14.544,0,0,0-5.546,2.151,14.56,14.56,0,0,1,.81,5.328Z" transform="translate(11.452 -324.676)" fill="#f4ede9"></path></g></svg>